<svg xmlns="http://www.w3.org/2000/svg" viewBox="0 0 212.18 215.44"><defs><style>.cls-1{fill:#242e54;}</style></defs><g id="Capa_2" data-name="Capa 2"><g id="Capa_1-2" data-name="Capa 1"><path class="cls-1" d="M97.22,151c0-17.65,0-35.29,0-52.94,0-2.76-.66-4.39-3.27-5.9-9.75-5.63-13.74-16-10.7-26.49a23.67,23.67,0,0,1,45.63.21c3,10.6-1,21.12-10.58,26.59-2.81,1.61-3.41,3.38-3.41,6.3q.13,51.69.06,103.38a39.47,39.47,0,0,1-.11,5c-.67,5.22-4.13,8.41-8.88,8.35s-8.09-3.3-8.71-8.56a35.34,35.34,0,0,1-.07-4Z"/><path class="cls-1" d="M0,71.31c.75-24,7.5-45.92,23.18-64.69C28.8-.11,33.64-1.76,38.24,1.91c4.79,3.83,4.52,8.87-1,15.62a83,83,0,0,0-19.37,57A82.52,82.52,0,0,0,36,124.08a55.59,55.59,0,0,1,4.16,5.57,8.6,8.6,0,0,1-2,11.58c-3.47,2.79-7.78,2.8-11.28-.7A79.3,79.3,0,0,1,18,129.8C5.82,112.23.49,92.5,0,71.31Z"/><path class="cls-1" d="M61.23,29.84c8.55.28,11.73,7.79,8.18,14.31-3.13,5.78-6.85,11.5-8.57,17.72-3.23,11.69-1.15,23,5.84,33.16a52.14,52.14,0,0,1,4,6.3c1.86,3.76.84,7.27-2.14,9.91a7.73,7.73,0,0,1-9.73.76,17.46,17.46,0,0,1-4.35-4c-16.64-21-16.67-52,.1-72.91C56.57,32.57,59.75,31,61.23,29.84Z"/><path class="cls-1" d="M212.18,71.31c-.75-24-7.5-45.92-23.18-64.69-5.63-6.73-10.46-8.38-15.06-4.71-4.79,3.83-4.52,8.87,1,15.62a83,83,0,0,1,19.38,57,82.47,82.47,0,0,1-18.17,49.51,55.49,55.49,0,0,0-4.15,5.57,8.6,8.6,0,0,0,2,11.58c3.46,2.79,7.78,2.8,11.28-.7a79.22,79.22,0,0,0,8.85-10.73C206.36,112.23,211.69,92.5,212.18,71.31Z"/><path class="cls-1" d="M151,29.84c-8.55.28-11.73,7.79-8.19,14.31,3.14,5.78,6.86,11.5,8.58,17.72,3.23,11.69,1.15,23-5.84,33.16a52.14,52.14,0,0,0-4,6.3c-1.86,3.76-.84,7.27,2.14,9.91a7.73,7.73,0,0,0,9.73.76,17.63,17.63,0,0,0,4.35-4c16.64-21,16.67-52-.1-72.91C155.61,32.57,152.43,31,151,29.84Z"/></g></g></svg>