<?xml version="1.0" encoding="utf-8"?>
<!-- Generator: Adobe Illustrator 26.3.1, SVG Export Plug-In . SVG Version: 6.00 Build 0)  -->
<svg version="1.1" id="Capa_1" xmlns="http://www.w3.org/2000/svg" xmlns:xlink="http://www.w3.org/1999/xlink" x="0px" y="0px"
	 viewBox="0 0 433.8 431.1" style="enable-background:new 0 0 433.8 431.1;" xml:space="preserve">
<style type="text/css">
	.st0{fill:#293461;}
</style>
<g>
	<path class="st0" d="M129.9,37.3c11.5,0,20.9,9.4,20.9,20.9v72c0,11.5-9.4,20.9-20.9,20.9h-72c-11.5,0-20.9-9.4-20.9-20.9v-72
		c0-11.5,9.4-20.9,20.9-20.9H129.9 M129.9,0.3h-72C25.9,0.3,0,26.2,0,58.2v72c0,32,25.9,57.9,57.9,57.9h72c32,0,57.9-25.9,57.9-57.9
		v-72C187.8,26.2,161.9,0.3,129.9,0.3L129.9,0.3z"/>
</g>
<g>
	<path class="st0" d="M375.9,37.3c11.5,0,20.9,9.4,20.9,20.9v72c0,11.5-9.4,20.9-20.9,20.9h-72c-11.5,0-20.9-9.4-20.9-20.9v-72
		c0-11.5,9.4-20.9,20.9-20.9H375.9 M375.9,0.3h-72c-32,0-57.9,25.9-57.9,57.9v72c0,32,25.9,57.9,57.9,57.9h72
		c32,0,57.9-25.9,57.9-57.9v-72C433.8,26.2,407.9,0.3,375.9,0.3L375.9,0.3z"/>
</g>
<g>
	<path class="st0" d="M375.9,280.3c11.5,0,20.9,9.4,20.9,20.9v72c0,11.5-9.4,20.9-20.9,20.9h-72c-11.5,0-20.9-9.4-20.9-20.9v-72
		c0-11.5,9.4-20.9,20.9-20.9H375.9 M375.9,243.3h-72c-32,0-57.9,25.9-57.9,57.9v72c0,32,25.9,57.9,57.9,57.9h72
		c32,0,57.9-25.9,57.9-57.9v-72C433.8,269.2,407.9,243.3,375.9,243.3L375.9,243.3z"/>
</g>
<g>
	<path class="st0" d="M129.9,280.3c11.5,0,20.9,9.4,20.9,20.9v72c0,11.5-9.4,20.9-20.9,20.9h-72c-11.5,0-20.9-9.4-20.9-20.9v-72
		c0-11.5,9.4-20.9,20.9-20.9H129.9 M129.9,243.3h-72c-32,0-57.9,25.9-57.9,57.9v72c0,32,25.9,57.9,57.9,57.9h72
		c32,0,57.9-25.9,57.9-57.9v-72C187.8,269.2,161.9,243.3,129.9,243.3L129.9,243.3z"/>
</g>
</svg>
