<?xml version="1.0" encoding="utf-8"?>
<!-- Generator: Adobe Illustrator 26.3.1, SVG Export Plug-In . SVG Version: 6.00 Build 0)  -->
<svg version="1.1" id="Capa_1" xmlns="http://www.w3.org/2000/svg" xmlns:xlink="http://www.w3.org/1999/xlink" x="0px" y="0px"
	 viewBox="0 0 317.6 317.6" style="enable-background:new 0 0 317.6 317.6;" xml:space="preserve">
<style type="text/css">
	.st0{fill:#293461;}
</style>
<path class="st0" d="M295.1,181.3H22.5C10.1,181.3,0,171.2,0,158.8v0c0-12.4,10.1-22.5,22.5-22.5h272.6c12.4,0,22.5,10.1,22.5,22.5
	v0C317.6,171.2,307.5,181.3,295.1,181.3z"/>
<path class="st0" d="M181.3,22.5v272.6c0,12.4-10.1,22.5-22.5,22.5h0c-12.4,0-22.5-10.1-22.5-22.5V22.5c0-12.4,10.1-22.5,22.5-22.5
	h0C171.2,0,181.3,10.1,181.3,22.5z"/>
</svg>
