<svg xmlns="http://www.w3.org/2000/svg" viewBox="0 0 239.06 167.82"><defs><style>.cls-1{fill:#242e54;}</style></defs><g id="Capa_2" data-name="Capa 2"><g id="Capa_1-2" data-name="Capa 1"><g id="_0onaZ3.tif" data-name="0onaZ3.tif"><path class="cls-1" d="M120.15,120q53,0,106,0c10.1,0,13,2.95,12.86,13.16-.22,20.41-14.17,34.54-34.57,34.58q-84.88.13-169.78,0C13,167.7-2,150.67.22,129.11c.64-6.12,4-9,10.89-9.08,12.45-.08,24.89,0,37.34,0ZM18.88,137.92C20.73,146.28,25.76,150,34.94,150H204.29a33,33,0,0,0,4-.12c6.39-.8,11.39-5.9,11.67-12Z"/><path class="cls-1" d="M215.14,107.62h-17.7v-5.44q0-38.75,0-77.47c0-6.33-.58-6.92-6.79-6.93q-70.95,0-141.9,0c-6.48,0-6.94.49-6.94,7.28q0,38.24,0,76.46v5.86H24.09v-5q0-39.22,0-78.47C24.12,8,32.16,0,48.09,0H191c16.21,0,24.14,8,24.15,24.25q0,39,0,78Z"/></g></g></g></svg>