<?xml version="1.0" encoding="utf-8"?>
<!-- Generator: Adobe Illustrator 26.1.0, SVG Export Plug-In . SVG Version: 6.00 Build 0)  -->
<svg version="1.1" id="Capa_1" xmlns="http://www.w3.org/2000/svg" xmlns:xlink="http://www.w3.org/1999/xlink" x="0px" y="0px"
	 viewBox="0 0 383.3 167.4" style="enable-background:new 0 0 383.3 167.4;" xml:space="preserve">
<style type="text/css">
	.st0{fill:#293462;}
</style>
<g id="a">
</g>
<g id="b">
	<g id="c">
		<path class="st0" d="M26,0h182.2c14.4,0,26,11.7,26,26l0,0c0,14.4-11.7,26-26,26H26C11.7,52,0,40.4,0,26l0,0C0,11.7,11.7,0,26,0z"
			/>
		<path class="st0" d="M26,115.3h331.2c14.4,0,26,11.7,26,26v0c0,14.4-11.7,26-26,26H26c-14.4,0-26-11.7-26-26v0
			C0,127,11.7,115.3,26,115.3z"/>
	</g>
</g>
</svg>
