<svg xmlns="http://www.w3.org/2000/svg" viewBox="0 0 215.11 191.78"><defs><style>.cls-1{fill:#242e54;}</style></defs><g id="Capa_2" data-name="Capa 2"><g id="Capa_1-2" data-name="Capa 1"><path class="cls-1" d="M122.66,113.72c0-6.86,0-12.85,0-18.83.06-6.36,4-11,9.22-10.83s8.4,4,8.46,10.85c.05,6,0,12,0,18.54,2,.09,3.79.25,5.55.25,14.27,0,28.54,0,42.81,0,16.45.09,26.21,9.94,26.33,26.5.07,8.66.09,17.33,0,26-.17,15.27-10.16,25.48-25.34,25.5q-82.14.12-164.28,0C10.7,191.7.66,181.87.22,167.1q-.44-14.73,0-29.48C.65,123.27,10.92,113.8,26,113.75c30-.1,60.07,0,90.11,0Zm-15.07,17.73q-40.57,0-81.15,0c-6.84,0-8.55,1.78-8.58,8.57,0,7.66,0,15.32,0,23,0,9.3,1.37,10.69,10.61,10.69H157.9c10.46,0,20.91.08,31.37,0,6.09-.08,8-2.14,8.08-8.19.06-8.16,0-16.33,0-24.49s-1.39-9.54-9.61-9.55Q147.67,131.42,107.59,131.45Z"/><path class="cls-1" d="M131.74,0c24,.75,45.93,7.5,64.69,23.18,6.73,5.62,8.39,10.46,4.71,15.06-3.83,4.79-8.86,4.52-15.62-1a83,83,0,0,0-57-19.37A82.5,82.5,0,0,0,79,36a55.72,55.72,0,0,1-5.58,4.16,8.59,8.59,0,0,1-11.57-2C59,34.7,59,30.39,62.52,26.89A79.38,79.38,0,0,1,73.26,18C90.83,5.82,110.55.49,131.74,0Z"/><path class="cls-1" d="M173.21,61.23c-.28,8.55-7.79,11.73-14.31,8.18-5.77-3.13-11.49-6.85-17.71-8.57-11.69-3.23-23-1.15-33.17,5.84a51.37,51.37,0,0,1-6.3,4c-3.76,1.86-7.27.84-9.91-2.14a7.74,7.74,0,0,1-.76-9.73,17.46,17.46,0,0,1,4-4.35c21-16.64,52-16.67,72.91.1C170.49,56.57,172.08,59.75,173.21,61.23Z"/><path class="cls-1" d="M47.66,152.39a8.54,8.54,0,0,1-8.86,8.75,8.65,8.65,0,1,1,8.86-8.75Z"/><path class="cls-1" d="M68.62,161.12a8.64,8.64,0,1,1,8.92-8.75A8.74,8.74,0,0,1,68.62,161.12Z"/></g></g></svg>