<svg xmlns="http://www.w3.org/2000/svg" viewBox="0 0 190.9 191.76"><defs><style>.cls-1{fill:#242e54;}</style></defs><g id="Capa_2" data-name="Capa 2"><g id="Capa_1-2" data-name="Capa 1"><g id="pS90zF.tif"><path class="cls-1" d="M62.23,116.32c5.94-5.83,11.13-11.46,16.93-16.36,2.39-2,6.28-3.78,9.17-3.38,7,1,9,9,4.11,14.71-3.58,4.15-7.54,8-11.43,11.83-1.88,1.86-4,3.48-6.22,5.4,1.78,1.94,2.83,3.16,4,4.3q14.76,14.85,29.55,29.68c7.34,7.39,6.83,12.09-1.94,17.94C67,206.73,12.65,185,2,138.6c-4.52-19.67-1.39-38,10-54.78,4.86-7.18,10.19-7.73,16.38-1.57C39.62,93.48,50.81,104.83,62.23,116.32Zm26.2,53.35L21.81,102.8c-8.73,17.68-3.84,42.19,11.82,57C48.72,174.13,73.39,178.32,88.43,169.67Z"/><path class="cls-1" d="M84.67,0c54.48,1.87,100.12,44.73,105.49,99.13.31,3.14.67,6.29.74,9.45.15,6.64-3,10.67-8.32,11-5.16.35-8.42-3.66-9.43-10.1-1.62-10.29-2.38-21.06-6-30.65C153.66,43.64,127.7,23.59,90.39,18.54c-2.79-.38-5.61-.54-8.42-.77-6.54-.53-10.46-4.1-10.19-9.29C72.05,3.13,76.11,0,82.67,0Z"/><path class="cls-1" d="M152,108.48c.22,6.52-2.85,10.67-8.2,11.11-5.17.42-8.89-3.5-9.44-10-2.67-31.15-21.7-50.31-52.51-52.84-6.49-.54-10.42-4.17-10.1-9.35.32-5.37,4.49-8.57,10.94-8.38A71.56,71.56,0,0,1,152,108.48Z"/></g></g></g></svg>