<svg xmlns="http://www.w3.org/2000/svg" viewBox="0 0 238.68 191.79"><defs><style>.cls-1{fill:#242e54;}</style></defs><g id="Capa_2" data-name="Capa 2"><g id="Capa_1-2" data-name="Capa 1"><g id="gJ8R1X.tif"><path class="cls-1" d="M128.3,143.78V173.6A37.26,37.26,0,0,0,132,174c7.5,0,15,0,22.5,0,8.23,0,12.57,3.17,12.45,9s-4.3,8.74-12.23,8.74q-35.5,0-71,0c-.83,0-1.67,0-2.5,0-6.08-.33-10-4-9.85-9.11s4-8.49,9.84-8.59c9.31-.17,18.63-.05,28.37-.05V143.78h-5.81q-44.73,0-89.48,0c-11.49,0-16-5.57-13.75-17Q11.87,69.54,23.2,12.25C25,3.33,28.89,0,38,0q81,0,162,0c9.58,0,13.39,3.21,15.32,12.83q11.52,57.5,23,115c2,10.2-2.81,15.9-13.39,15.91q-45,0-90,0Zm-37-65.71c-1.49,16-3,31.77-4.43,47.65h64.67c-1.52-16.12-3-31.89-4.5-47.65Zm128.83,47.72C217,110.5,214,95.85,211.21,81.17c-.59-3.1-2.24-3.46-4.88-3.44-12.49.1-25,0-37.46.07a37.71,37.71,0,0,0-4,.45c1.65,16.09,3.25,31.77,4.86,47.54ZM27.91,78c-3.08,15.87-6.16,31.69-9.33,48,16.39,0,31.85.08,47.29-.17,1.11,0,2.92-2.29,3.14-3.71.93-6.24,1.43-12.55,2-18.83.81-8.35,1.57-16.71,2.38-25.31ZM145.54,59.74c-1.4-14.17-2.76-27.87-4.12-41.65H96.91L92.84,59.74Zm-70.49,0C76.43,45.65,77.77,32,79.14,18H39.91c-2.7,13.78-5.41,27.56-8.18,41.7Zm131.56,0c-2-10.33-3.84-20.1-5.83-29.85-2.48-12.11-2.53-12.1-15-12.1H159.16c1.42,14.38,2.78,28.05,4.15,41.95Z"/></g></g></g></svg>